<svg fill="none" xmlns="http://www.w3.org/2000/svg" viewBox="0 0 128 128" width="128" height="128"><path fill="#fff" d="M0 0h128v128H0z"/><path fill="#BBB" d="M20 20h100v100H20z"/><path fill="#666" d="M14 14h100v100H14z"/><path fill="#000" d="M8 8h100v100H8z"/><path d="M61.77 40.74a70.8 70.8 0 0 1 10.01-5.08c2.83-1.1 5.23-1.66 7.18-1.66 4.04 0 7.18 1.32 9.42 3.96 2.25 2.6 3.37 6.26 3.37 10.98v28.47l1.8 1.6 5.33.5v3.61H77.05v-3.61l4.7-.5 1.8-1.6V50.94c0-3.54-.73-6.15-2.2-7.8-1.46-1.67-3.73-2.5-6.79-2.5-1.53 0-3.23.28-5.12.83-1.86.52-3.9 1.34-6.15 2.44v33.5l1.75 1.6 4.74.5v3.61H48.44v-3.61l4.84-.5 1.7-1.6V50.94c0-3.51-.73-6.1-2.2-7.76-1.43-1.7-3.64-2.54-6.63-2.54-1.63 0-3.39.28-5.28.83a34.98 34.98 0 0 0-6.1 2.44v33.5l1.7 1.6 4.8.5v3.61H19.33v-3.61l5.42-.5 1.7-1.6V41.23h-7.12V38.1l11.62-3.56h3.81V40a61.66 61.66 0 0 1 9.08-4.55c2.6-.97 4.92-1.46 6.94-1.46 2.44 0 4.59.57 6.44 1.7a12.22 12.22 0 0 1 4.54 5.04Z" fill="#fff"/></svg>